<svg width="18" height="18" viewBox="0 0 18 18" fill="none" xmlns="http://www.w3.org/2000/svg">
<path d="M8.78658 1.90924C8.76794 1.83495 8.76728 1.75729 8.78464 1.6827C8.80199 1.6081 8.83687 1.53871 8.88638 1.48027C8.9359 1.42184 8.99862 1.37604 9.06936 1.34667C9.14009 1.3173 9.21681 1.30521 9.29315 1.31139C13.2602 1.63024 16.38 4.94996 16.38 8.99996C16.38 13.2608 12.9266 16.7142 8.66572 16.7142C7.31483 16.7148 5.98751 16.3604 4.81664 15.6867C3.64578 15.0129 2.67246 14.0433 1.99415 12.8751C1.9564 12.8103 1.93427 12.7376 1.92952 12.6628C1.92478 12.588 1.93755 12.5131 1.96682 12.4441C1.99609 12.3751 2.04105 12.3138 2.09813 12.2652C2.15521 12.2166 2.22284 12.182 2.29565 12.1641C3.32358 11.9115 4.57779 11.5058 5.71565 10.8758C6.85543 10.2439 7.8435 9.4056 8.39508 8.30246C9.49693 6.09939 9.20572 3.58067 8.78658 1.90924Z" fill="white"/>
</svg>
