<?xml version="1.0" encoding="UTF-8"?>
<!DOCTYPE svg PUBLIC "-//W3C//DTD SVG 1.1//EN" "http://www.w3.org/Graphics/SVG/1.1/DTD/svg11.dtd">
<!-- Creator: CorelDRAW -->
<svg xmlns="http://www.w3.org/2000/svg" xml:space="preserve" width="6.82666in" height="6.82666in" style="shape-rendering:geometricPrecision; text-rendering:geometricPrecision; image-rendering:optimizeQuality; fill-rule:evenodd; clip-rule:evenodd"
viewBox="0 0 6.82666 6.82666"
 xmlns:xlink="http://www.w3.org/1999/xlink">
 <defs>
  <style type="text/css">
   <![CDATA[
    .fil13 {fill:none}
    .fil6 {fill:#414141}
    .fil11 {fill:#7E7E7E}
    .fil3 {fill:gray}
    .fil4 {fill:#898989}
    .fil2 {fill:#8E8E8F}
    .fil0 {fill:darkgray}
    .fil8 {fill:#CDCDCD}
    .fil7 {fill:#E6E6E7}
    .fil12 {fill:#F0F0F0}
    .fil9 {fill:#FDFDFD}
    .fil5 {fill:white}
    .fil10 {fill:#8B8C8C;fill-rule:nonzero}
    .fil1 {fill:#8E8E8F;fill-rule:nonzero}
   ]]>
  </style>
 </defs>
 <g id="Layer_x0020_1">
  <metadata id="CorelCorpID_0Corel-Layer"/>
  <polygon class="fil0" points="2.01864,5.18298 5.62285,5.18298 5.62285,2.89526 3.82196,1.18176 2.01864,2.88302 "/>
  <polygon class="fil1" points="5.89307,3.5281 3.82344,1.5589 1.73635,3.52786 1.73635,2.9637 3.68341,1.12683 3.82459,0.993638 3.96542,1.12763 5.89307,2.96174 "/>
  <rect class="fil2" x="5.11085" y="1.91483" width="0.520304" height="0.807404"/>
  <rect class="fil3" x="5.03842" y="1.78335" width="0.665161" height="0.181364"/>
  <circle class="fil4" cx="3.82075" cy="2.82484" r="0.407194"/>
  <circle class="fil5" cx="3.82075" cy="2.82483" r="0.376911"/>
  <polygon class="fil4" points="2.32105,5.18298 3.48774,5.18298 3.48774,3.78878 2.32105,3.78878 "/>
  <rect class="fil5" x="2.37981" y="3.83595" width="1.04917" height="1.34704"/>
  <rect class="fil4" x="4.3157" y="3.78878" width="0.842289" height="0.842289"/>
  <rect class="fil5" x="4.35179" y="3.82487" width="0.770102" height="0.770102"/>
  <rect class="fil4" x="4.71817" y="3.82487" width="0.0373492" height="0.770102"/>
  <rect class="fil4" transform="matrix(1.6283E-015 0.0614813 -0.936482 2.48023E-014 5.12189 4.19125)" width="0.607488" height="0.822335"/>
  <line class="fil6" x1="4.4637" y1="5.72635" x2="4.4637" y2= "5.72635" />
  <path class="fil7" d="M1.81343 5.61092l0.354657 0c0.157811,0.0759724 1.31861,0.60513 2.23187,0.190598l0.00255512 -0.00127559c0.320303,-0.158016 1.15231,-0.505335 1.45331,-0.736224 0.214594,-0.164606 0.153496,-0.310354 -0.123488,-0.336957 -0.324146,-0.0311339 -0.788791,0.149602 -0.83361,0.156169 -0.492035,0.144323 -1.13295,0.401252 -1.54894,0.151039 1.30272,-0.0729921 1.81629,-0.937654 0.751878,-0.785579 -0.517472,0.0739449 -1.05552,0.319524 -1.54002,0.0713268l-0.00798819 -0.00351575c-0.134752,-0.0517677 -0.278004,-0.0836929 -0.411122,-0.103122 -0.0652559,-0.00951969 -0.270232,-0.0160748 -0.329102,-0.0205157l0 1.41806z"/>
  <path class="fil8" d="M4.51966 4.33128c0.0280827,0.00975591 0.0679921,0.028563 0.0776417,0.059126 0.014752,0.0467244 -0.0359409,0.114366 -0.0654961,0.147283 -0.0554488,0.0617559 -0.127091,0.113161 -0.198256,0.155299l-0.010063 0.00595669 0 -0.393039 0.00666535 0c0.0619409,0 0.130909,0.00501181 0.189508,0.025374z"/>
  <path class="fil9" d="M4.51747 4.33758c0.0252126,0.00875984 0.0645591,0.0265945 0.0734764,0.0548386 0.0139173,0.0440827 -0.0375512,0.111252 -0.0641024,0.140823 -0.0530236,0.0590591 -0.123713,0.110807 -0.196693,0.154016l0 -0.374681c0.064,0 0.132083,0.00581102 0.187319,0.0250039z"/>
  <path class="fil10" d="M1.68728 3.93758l-0.636346 0c-0.051252,0 -0.0977913,0.0188425 -0.131469,0.049189 -0.033685,0.0303543 -0.0545906,0.0722874 -0.0545906,0.118472l0 1.59492c0,0.0461811 0.0209134,0.0881181 0.0545906,0.118465 0.033685,0.0303543 0.0802165,0.0491929 0.131469,0.0491929l0.636346 0c0.0512559,0 0.0977874,-0.0188386 0.131469,-0.049189 0.033685,-0.0303543 0.0545906,-0.0722874 0.0545906,-0.118469l0 -1.59492c0,-0.0461811 -0.0209055,-0.088122 -0.0545906,-0.118472 -0.0336772,-0.0303504 -0.0802126,-0.049189 -0.131469,-0.049189z"/>
  <path class="fil11" d="M1.68613 4.56063c0,0.114752 -0.0930748,0.207827 -0.207827,0.207827 -0.114748,0 -0.207827,-0.0930787 -0.207827,-0.207827l0 -0.191657c0,-0.114748 0.0930827,-0.207819 0.207827,-0.207819 0.114748,0 0.207827,0.0930709 0.207827,0.207819l0 0.191657z"/>
  <path class="fil12" d="M1.60613 4.56063l0 -0.191657c0,-0.0705906 -0.0572362,-0.127823 -0.127831,-0.127823 -0.0705984,0 -0.127831,0.0572323 -0.127831,0.127823l0 0.191657c0,0.0705945 0.0572323,0.127831 0.127831,0.127831 0.0705945,0 0.127831,-0.0572362 0.127831,-0.127831z"/>
  <line class="fil6" x1="4.4637" y1="5.06841" x2="4.4637" y2= "5.06841" />
 </g>
 <rect class="fil13" width="6.82666" height="6.82666"/>
</svg>
