<svg width="12" height="10" viewBox="0 0 12 10" fill="none" xmlns="http://www.w3.org/2000/svg">
<g clip-path="url(#clip0_2040_5199)">
<path d="M6.69727 2.27934C6.46836 2.25871 6.23577 2.24689 6 2.24394C4.96975 2.24775 3.90177 2.45659 2.89087 2.85674C2.14029 3.16609 1.40914 3.60282 0.77417 4.14153C0.46232 4.41653 0.06431 4.81471 0 5.23954C0.0076 5.60756 0.48153 6.0618 0.77417 6.33758C1.3696 6.85513 2.08171 7.27935 2.89087 7.62236C2.91837 7.63349 2.94597 7.64448 2.97363 7.65532L2.22291 8.74784L3.24296 9.25022L8.75712 1.24994L7.77526 0.749878L6.69727 2.27934ZM9.02563 2.825L8.27636 3.90714C8.62106 4.28033 8.82568 4.74053 8.82568 5.23954C8.82568 6.48335 7.56046 7.49175 5.99926 7.49175C5.93177 7.49175 5.86636 7.48568 5.80004 7.48198L5.30419 8.19731C5.53287 8.21772 5.76409 8.23259 5.99999 8.23515C7.03122 8.2313 8.0986 8.02005 9.10839 7.62236C9.85897 7.31301 10.5908 6.87629 11.2258 6.33758C11.5377 6.06259 11.9357 5.66439 12 5.23954C11.9924 4.87154 11.5185 4.4173 11.2258 4.14152C10.6304 3.62397 9.91755 3.19974 9.10839 2.85673C9.08108 2.84569 9.05312 2.83577 9.02563 2.825ZM5.99927 2.98736C6.06773 2.98736 6.13565 2.98964 6.20288 2.99346L5.62207 3.83147C4.80693 3.96919 4.19531 4.54714 4.19531 5.23895C4.19531 5.41273 4.23372 5.5791 4.30444 5.73332C4.30452 5.73349 4.30436 5.73376 4.30444 5.73394L3.72216 6.57439C3.37665 6.20086 3.17284 5.73915 3.17284 5.23954C3.17285 3.99574 4.43808 2.98735 5.99927 2.98736ZM7.68896 4.75432L6.38013 6.64397C7.19089 6.50366 7.7981 5.92835 7.7981 5.23895C7.7981 5.06833 7.75724 4.90612 7.68896 4.75432Z" fill="black"/>
</g>
<defs>
<clipPath id="clip0_2040_5199">
<rect width="12" height="10" fill="white"/>
</clipPath>
</defs>
</svg>
