<svg width="60" height="24" viewBox="0 0 60 24" fill="none" xmlns="http://www.w3.org/2000/svg">
<rect x="0.25" y="0.25" width="59.5" height="23.5" rx="4.75" fill="white"/>
<rect x="0.25" y="0.25" width="59.5" height="23.5" rx="4.75" stroke="#381230" stroke-width="0.5"/>
<path d="M7.12803 17C7.43691 16.1261 8.27034 15.5 9.25 15.5C10.2297 15.5 11.0631 16.1261 11.372 17H19V18.5H11.372C11.0631 19.3739 10.2297 20 9.25 20C8.27034 20 7.43691 19.3739 7.12803 18.5H4V17H7.12803ZM11.628 11.75C11.9369 10.8761 12.7703 10.25 13.75 10.25C14.7297 10.25 15.5631 10.8761 15.872 11.75H19V13.25H15.872C15.5631 14.1239 14.7297 14.75 13.75 14.75C12.7703 14.75 11.9369 14.1239 11.628 13.25H4V11.75H11.628ZM7.12803 6.5C7.43691 5.62611 8.27034 5 9.25 5C10.2297 5 11.0631 5.62611 11.372 6.5H19V8H11.372C11.0631 8.87389 10.2297 9.5 9.25 9.5C8.27034 9.5 7.43691 8.87389 7.12803 8H4V6.5H7.12803ZM9.25 8C9.66421 8 10 7.66421 10 7.25C10 6.83579 9.66421 6.5 9.25 6.5C8.83579 6.5 8.5 6.83579 8.5 7.25C8.5 7.66421 8.83579 8 9.25 8ZM13.75 13.25C14.1642 13.25 14.5 12.9142 14.5 12.5C14.5 12.0858 14.1642 11.75 13.75 11.75C13.3358 11.75 13 12.0858 13 12.5C13 12.9142 13.3358 13.25 13.75 13.25ZM9.25 18.5C9.66421 18.5 10 18.1642 10 17.75C10 17.3358 9.66421 17 9.25 17C8.83579 17 8.5 17.3358 8.5 17.75C8.5 18.1642 8.83579 18.5 9.25 18.5Z" fill="#381230"/>
<path d="M28.9845 9H33.6845L33.6745 10.01H30.1645V12.09H33.3445V13.09H30.1645V16H28.9845V9ZM34.1664 10.69H35.3064V16H34.1664V10.69ZM34.7364 8.5C34.9297 8.5 35.0897 8.56333 35.2164 8.69C35.3431 8.81667 35.4064 8.97667 35.4064 9.17C35.4064 9.35667 35.3431 9.51667 35.2164 9.65C35.0897 9.77667 34.9297 9.84 34.7364 9.84C34.5497 9.84 34.3897 9.77667 34.2564 9.65C34.1297 9.51667 34.0664 9.35667 34.0664 9.17C34.0664 8.97667 34.1297 8.81667 34.2564 8.69C34.3897 8.56333 34.5497 8.5 34.7364 8.5ZM36.5582 8.58H37.7082V16H36.5582V8.58ZM40.3074 14.32C40.3074 14.6067 40.3574 14.8033 40.4574 14.91C40.5574 15.01 40.6974 15.06 40.8774 15.06C40.9974 15.06 41.1208 15.04 41.2474 15C41.3808 14.96 41.5241 14.9 41.6774 14.82L41.9674 15.65C41.7608 15.7767 41.5474 15.8767 41.3274 15.95C41.1074 16.0167 40.8841 16.05 40.6574 16.05C40.3908 16.05 40.1441 16 39.9174 15.9C39.6908 15.7933 39.5074 15.6267 39.3674 15.4C39.2341 15.1733 39.1674 14.88 39.1674 14.52V9.43H40.3074V14.32ZM38.4174 10.88H41.8774V11.7H38.4174V10.88ZM46.1511 12.96C46.1378 12.66 46.0678 12.4067 45.9411 12.2C45.8211 11.9867 45.6511 11.8233 45.4311 11.71C45.2111 11.59 44.9578 11.53 44.6711 11.53C44.3511 11.53 44.0711 11.6033 43.8311 11.75C43.5978 11.8967 43.4144 12.1033 43.2811 12.37C43.1478 12.63 43.0811 12.9367 43.0811 13.29C43.0811 13.67 43.1511 14 43.2911 14.28C43.4378 14.56 43.6378 14.7767 43.8911 14.93C44.1511 15.0833 44.4478 15.16 44.7811 15.16C45.3744 15.16 45.8744 14.95 46.2811 14.53L46.8911 15.14C46.6311 15.4267 46.3144 15.65 45.9411 15.81C45.5678 15.9633 45.1511 16.04 44.6911 16.04C44.1444 16.04 43.6678 15.9267 43.2611 15.7C42.8544 15.4733 42.5378 15.16 42.3111 14.76C42.0844 14.3533 41.9711 13.8833 41.9711 13.35C41.9711 12.8167 42.0844 12.35 42.3111 11.95C42.5378 11.5433 42.8544 11.2267 43.2611 11C43.6678 10.7733 44.1344 10.6567 44.6611 10.65C45.2878 10.65 45.7911 10.78 46.1711 11.04C46.5511 11.2933 46.8211 11.6533 46.9811 12.12C47.1411 12.5867 47.1978 13.14 47.1511 13.78H42.9011V12.96H46.1511ZM50.84 11.69C50.46 11.67 50.13 11.7367 49.85 11.89C49.5767 12.0367 49.3633 12.2433 49.21 12.51C49.0633 12.7767 48.99 13.0833 48.99 13.43L48.67 13.39C48.67 12.7967 48.7567 12.2967 48.93 11.89C49.1033 11.4833 49.3533 11.1767 49.68 10.97C50.0067 10.7567 50.3933 10.65 50.84 10.65V11.69ZM47.85 10.69H49V16H47.85V10.69Z" fill="#381230"/>
</svg>
