<svg width="60" height="24" viewBox="0 0 60 24" fill="none" xmlns="http://www.w3.org/2000/svg">
<g clip-path="url(#clip0_139_2149)">
<rect width="60" height="24" rx="5" fill="white"/>
<path d="M32.1419 10.62C31.8886 10.46 31.6386 10.3333 31.3919 10.24C31.1452 10.1467 30.9119 10.08 30.6919 10.04C30.4719 10 30.2719 9.98 30.0919 9.98C29.7452 9.98 29.4686 10.0467 29.2619 10.18C29.0552 10.3133 28.9519 10.5067 28.9519 10.76C28.9519 10.9867 29.0186 11.1733 29.1519 11.32C29.2919 11.46 29.4719 11.5767 29.6919 11.67C29.9186 11.7567 30.1652 11.84 30.4319 11.92C30.7052 12 30.9752 12.09 31.2419 12.19C31.5086 12.2833 31.7552 12.4067 31.9819 12.56C32.2086 12.7133 32.3886 12.91 32.5219 13.15C32.6552 13.3833 32.7219 13.68 32.7219 14.04C32.7219 14.4533 32.6086 14.8133 32.3819 15.12C32.1552 15.42 31.8419 15.6533 31.4419 15.82C31.0486 15.9867 30.5952 16.07 30.0819 16.07C29.7152 16.07 29.3586 16.0233 29.0119 15.93C28.6652 15.83 28.3386 15.6967 28.0319 15.53C27.7319 15.3633 27.4619 15.17 27.2219 14.95L27.7319 13.98C27.9719 14.2 28.2252 14.3867 28.4919 14.54C28.7652 14.6933 29.0386 14.81 29.3119 14.89C29.5919 14.97 29.8552 15.01 30.1019 15.01C30.5152 15.01 30.8352 14.93 31.0619 14.77C31.2952 14.61 31.4119 14.3867 31.4119 14.1C31.4119 13.8667 31.3419 13.68 31.2019 13.54C31.0686 13.3933 30.8886 13.2733 30.6619 13.18C30.4419 13.0867 30.1952 13.0033 29.9219 12.93C29.6552 12.8567 29.3852 12.7733 29.1119 12.68C28.8452 12.58 28.5986 12.4567 28.3719 12.31C28.1519 12.1633 27.9719 11.9733 27.8319 11.74C27.6986 11.5067 27.6319 11.21 27.6319 10.85C27.6319 10.4567 27.7386 10.1167 27.9519 9.83C28.1652 9.53667 28.4619 9.31 28.8419 9.15C29.2286 8.99 29.6752 8.91 30.1819 8.91C30.6352 8.91 31.0752 8.97667 31.5019 9.11C31.9286 9.24333 32.3052 9.41667 32.6319 9.63L32.1419 10.62ZM34.8826 14.32C34.8826 14.6067 34.9326 14.8033 35.0326 14.91C35.1326 15.01 35.2726 15.06 35.4526 15.06C35.5726 15.06 35.696 15.04 35.8226 15C35.956 14.96 36.0993 14.9 36.2526 14.82L36.5426 15.65C36.336 15.7767 36.1226 15.8767 35.9026 15.95C35.6826 16.0167 35.4593 16.05 35.2326 16.05C34.966 16.05 34.7193 16 34.4926 15.9C34.266 15.7933 34.0826 15.6267 33.9426 15.4C33.8093 15.1733 33.7426 14.88 33.7426 14.52V9.43H34.8826V14.32ZM32.9926 10.88H36.4526V11.7H32.9926V10.88ZM39.3263 10.65C39.873 10.65 40.353 10.7633 40.7663 10.99C41.1863 11.2167 41.513 11.5333 41.7463 11.94C41.9796 12.34 42.0963 12.8067 42.0963 13.34C42.0963 13.8733 41.9796 14.3433 41.7463 14.75C41.513 15.1567 41.1863 15.4733 40.7663 15.7C40.353 15.9267 39.873 16.04 39.3263 16.04C38.7796 16.04 38.2963 15.9267 37.8763 15.7C37.4563 15.4733 37.1296 15.1567 36.8963 14.75C36.663 14.3433 36.5463 13.8733 36.5463 13.34C36.5463 12.8067 36.663 12.34 36.8963 11.94C37.1296 11.5333 37.4563 11.2167 37.8763 10.99C38.2963 10.7633 38.7796 10.65 39.3263 10.65ZM39.3263 11.58C39.0063 11.58 38.723 11.6567 38.4763 11.81C38.2296 11.9567 38.0363 12.1633 37.8963 12.43C37.763 12.6967 37.6963 13.0033 37.6963 13.35C37.6963 13.7033 37.763 14.0133 37.8963 14.28C38.0363 14.5467 38.2296 14.7567 38.4763 14.91C38.723 15.0567 39.0063 15.13 39.3263 15.13C39.6463 15.13 39.9263 15.0567 40.1663 14.91C40.413 14.7567 40.603 14.5467 40.7363 14.28C40.8763 14.0133 40.9463 13.7033 40.9463 13.35C40.9463 13.0033 40.8763 12.6967 40.7363 12.43C40.603 12.1633 40.413 11.9567 40.1663 11.81C39.9263 11.6567 39.6463 11.58 39.3263 11.58ZM46.5463 12.21C46.3596 12.0167 46.1396 11.8667 45.8863 11.76C45.633 11.6533 45.3463 11.6 45.0263 11.6C44.7196 11.6 44.4463 11.6733 44.2063 11.82C43.9663 11.9667 43.7796 12.1733 43.6463 12.44C43.513 12.7 43.4463 13.0033 43.4463 13.35C43.4463 13.6967 43.513 14.0033 43.6463 14.27C43.7796 14.53 43.9663 14.7367 44.2063 14.89C44.4463 15.0367 44.7196 15.11 45.0263 15.11C45.3596 15.11 45.6596 15.0567 45.9263 14.95C46.193 14.8367 46.4163 14.6733 46.5963 14.46L47.2363 15.09C46.9963 15.39 46.683 15.6233 46.2963 15.79C45.9163 15.9567 45.4763 16.04 44.9763 16.04C44.4496 16.04 43.983 15.9267 43.5763 15.7C43.1763 15.4733 42.863 15.16 42.6363 14.76C42.4096 14.3533 42.2963 13.8833 42.2963 13.35C42.2963 12.8167 42.4096 12.35 42.6363 11.95C42.863 11.5433 43.1763 11.2267 43.5763 11C43.983 10.7667 44.4496 10.65 44.9763 10.65C45.4563 10.65 45.8796 10.7233 46.2463 10.87C46.6196 11.01 46.9296 11.21 47.1763 11.47L46.5463 12.21ZM47.9908 8.58H49.1408V16H47.9908V8.58ZM51.4908 10.69H52.8108L49.0508 14.59V13.22L51.4908 10.69ZM50.7308 12.58L52.9608 16H51.6008L49.8808 13.27L50.7308 12.58Z" fill="#381230"/>
<path d="M11 8.33333C11 7.22877 11.8954 6.33333 13 6.33333C14.1046 6.33333 15 7.22877 15 8.33333H11ZM9.66667 8.33333H7.66667C7.29848 8.33333 7 8.63181 7 9V18.3333C7 18.7015 7.29848 19 7.66667 19H18.3333C18.7015 19 19 18.7015 19 18.3333V9C19 8.63181 18.7015 8.33333 18.3333 8.33333H16.3333C16.3333 6.49239 14.8409 5 13 5C11.1591 5 9.66667 6.49239 9.66667 8.33333ZM11 11C11 12.1046 11.8954 13 13 13C14.1046 13 15 12.1046 15 11H16.3333C16.3333 12.8409 14.8409 14.3333 13 14.3333C11.1591 14.3333 9.66667 12.8409 9.66667 11H11Z" fill="#381230"/>
</g>
<rect x="0.25" y="0.25" width="59.5" height="23.5" rx="4.75" stroke="#381230" stroke-width="0.5"/>
<defs>
<clipPath id="clip0_139_2149">
<rect width="60" height="24" rx="5" fill="white"/>
</clipPath>
</defs>
</svg>
