<svg width="24" height="26" viewBox="0 0 24 26" fill="none" xmlns="http://www.w3.org/2000/svg">
<path d="M20.04 7.35478L14.28 3.0087C12.71 1.82243 10.3 1.88714 8.78999 3.1489L3.77999 7.36557C2.77999 8.20674 1.98999 9.93223 1.98999 11.2911V18.7322C1.98999 21.4822 4.05999 23.7254 6.60999 23.7254H17.39C19.94 23.7254 22.01 21.493 22.01 18.743V11.4313C22.01 9.97537 21.14 8.18517 20.04 7.35478ZM12.75 19.4116C12.75 19.8538 12.41 20.2205 12 20.2205C11.59 20.2205 11.25 19.8538 11.25 19.4116V16.1764C11.25 15.7342 11.59 15.3675 12 15.3675C12.41 15.3675 12.75 15.7342 12.75 16.1764V19.4116Z" fill="#381230"/>
</svg>
