<svg width="28" height="32" viewBox="0 0 28 32" fill="none" xmlns="http://www.w3.org/2000/svg">
<path d="M14.0038 0C5.49554 0 0 5.17119 0 13.1674C0 21.1636 5.49554 26.3348 14.0038 26.3348C14.0643 26.3348 14.1249 26.3348 14.1855 26.3348C14.1249 26.9891 13.9735 27.7074 13.7313 28.4814C13.4588 29.3433 13.7313 30.261 14.405 30.8196C14.7759 31.1229 15.2074 31.2745 15.6388 31.2745C16.0097 31.2745 16.3806 31.1628 16.7137 30.9393C19.4766 29.0879 21.1873 26.9253 21.8232 24.4993C25.7594 22.2888 28 18.1949 28 13.1754C28 5.17917 22.5045 0.00798041 13.9962 0.00798041L14.0038 0ZM20.3547 22.6C20.0292 22.7596 19.8021 23.0788 19.734 23.4459C19.4009 25.2415 18.1444 26.9811 16.1006 28.4974C16.4336 27.2206 16.5547 26.0395 16.4563 24.9781C16.3958 24.3636 15.9038 23.8928 15.3285 23.8928C15.2982 23.8928 15.2755 23.8928 15.2452 23.8928C14.844 23.9247 14.4353 23.9407 14.0114 23.9407C6.7748 23.9407 2.27845 19.8149 2.27845 13.1674C2.27845 6.51985 6.7748 2.39407 14.0114 2.39407C21.2479 2.39407 25.7443 6.51985 25.7443 13.1674C25.7443 17.5006 23.8367 20.8444 20.3623 22.6H20.3547Z" fill="white"/>
<path d="M12.2931 12.6886L12.1946 12.6407C11.8162 12.4332 11.5058 12.106 11.309 11.707L11.2636 11.6033C11.0743 11.2122 10.5445 11.2122 10.3552 11.6033L10.3098 11.707C10.113 12.106 9.80265 12.4332 9.42417 12.6407L9.32576 12.6886C8.95485 12.8881 8.95485 13.4467 9.32576 13.6462L9.42417 13.6941C9.80265 13.9016 10.113 14.2287 10.3098 14.6278L10.3552 14.7315C10.5445 15.1225 11.0743 15.1225 11.2636 14.7315L11.309 14.6278C11.5058 14.2287 11.8162 13.9016 12.1946 13.6941L12.2931 13.6462C12.664 13.4467 12.664 12.8881 12.2931 12.6886Z" fill="white"/>
<path d="M7.94809 12.497L7.81184 12.4252C7.28197 12.1379 6.84293 11.6831 6.57042 11.1165L6.5023 10.9728C6.23736 10.4222 5.49554 10.4222 5.2306 10.9728L5.16248 11.1165C4.88997 11.6751 4.4585 12.1379 3.92106 12.4252L3.78481 12.497C3.2625 12.7763 3.2625 13.5584 3.78481 13.8377L3.92106 13.9095C4.45093 14.1968 4.88997 14.6517 5.16248 15.2183L5.2306 15.3619C5.49554 15.9126 6.23736 15.9126 6.5023 15.3619L6.57042 15.2183C6.84293 14.6597 7.2744 14.1968 7.81184 13.9095L7.94809 13.8377C8.4704 13.5584 8.4704 12.7763 7.94809 12.497Z" fill="white"/>
<path d="M23.5264 10.885L23.2841 10.7573C22.5272 10.3504 21.9216 9.71194 21.5355 8.91391L21.4144 8.65855C20.9981 7.79668 20.1654 7.26201 19.2495 7.26201C18.3336 7.26201 17.5009 7.79668 17.077 8.65855L16.9559 8.91391C16.5699 9.71194 15.9643 10.3504 15.2074 10.7573L14.9651 10.885C14.1476 11.3239 13.6404 12.2018 13.6404 13.1754C13.6404 14.1489 14.1476 15.0188 14.9651 15.4657L15.2074 15.5934C15.9643 16.0004 16.5699 16.6388 16.9559 17.4368L17.077 17.6922C17.4934 18.554 18.326 19.0887 19.2495 19.0887C20.173 19.0887 20.9981 18.554 21.422 17.6922L21.5431 17.4368C21.9292 16.6388 22.5347 16.0004 23.2917 15.5934L23.5339 15.4657C24.3514 15.0268 24.8586 14.1489 24.8586 13.1833C24.8586 12.2177 24.3514 11.3399 23.5339 10.893L23.5264 10.885ZM22.4969 13.327L22.2547 13.4547C21.0662 14.0931 20.12 15.0906 19.5145 16.3435L19.3933 16.5989C19.3933 16.5989 19.3479 16.6946 19.2495 16.6946C19.1511 16.6946 19.1133 16.6228 19.1057 16.5989L18.9846 16.3435C18.379 15.0906 17.4328 14.0931 16.2444 13.4547L16.0022 13.327C16.0022 13.327 15.9113 13.2791 15.9113 13.1754C15.9113 13.0716 15.9795 13.0317 16.0022 13.0237L16.2444 12.896C17.4328 12.2576 18.379 11.2601 18.9846 10.0072L19.1057 9.75184C19.1057 9.75184 19.1511 9.65608 19.2495 9.65608C19.3479 9.65608 19.3858 9.71992 19.3933 9.75184L19.5145 10.0072C20.12 11.2601 21.0662 12.2576 22.2547 12.896L22.4969 13.0237C22.4969 13.0237 22.5877 13.0716 22.5877 13.1754C22.5877 13.2791 22.5196 13.319 22.4969 13.327Z" fill="white"/>
</svg>
