<svg width="21" height="17" viewBox="0 0 21 17" fill="none" xmlns="http://www.w3.org/2000/svg">
<path d="M18.514 14.2146L20.5 14.2143V9.47959L17.1667 5.07143H13.8333V14.2143M18.514 14.2146C18.318 13.5486 17.7888 13.0714 17.1667 13.0714M18.514 14.2146C18.5666 14.3933 18.5952 14.5855 18.5952 14.7857M17.1667 13.0714C16.5446 13.0714 16.0153 13.5486 15.8193 14.2146M17.1667 13.0714C17.9556 13.0714 18.5952 13.8389 18.5952 14.7857M17.1667 13.0714C16.3777 13.0714 15.7381 13.8389 15.7381 14.7857M15.8193 14.2146L13.8333 14.2143M15.8193 14.2146C15.7667 14.3933 15.7381 14.5855 15.7381 14.7857M13.8333 14.2143V0.5H0.5M13.8333 14.2143L7.08548 14.2146M7.08548 14.2146C6.88944 13.5486 6.36021 13.0714 5.7381 13.0714M7.08548 14.2146C7.13806 14.3933 7.16667 14.5855 7.16667 14.7857M5.7381 13.0714C5.11598 13.0714 4.58675 13.5486 4.39071 14.2146M5.7381 13.0714C6.52707 13.0714 7.16667 13.8389 7.16667 14.7857M5.7381 13.0714C4.94912 13.0714 4.30952 13.8389 4.30952 14.7857M4.39071 14.2146L3.35714 14.2143M4.39071 14.2146C4.33813 14.3933 4.30952 14.5855 4.30952 14.7857M18.5952 14.7857C18.5952 15.7325 17.9556 16.5 17.1667 16.5C16.3777 16.5 15.7381 15.7325 15.7381 14.7857M7.16667 14.7857C7.16667 15.7325 6.52707 16.5 5.7381 16.5C4.94912 16.5 4.30952 15.7325 4.30952 14.7857M3.83333 7.35714H2.40476M3.83333 10.7857H3.35714M3.83333 3.92857H1.45238" stroke="white" stroke-linecap="round"/>
</svg>
